<?xml version="1.0" encoding="utf-8"?>
<!-- Generator: Adobe Illustrator 22.1.0, SVG Export Plug-In . SVG Version: 6.00 Build 0)  -->
<svg version="1.1" id="Layer_1" xmlns="http://www.w3.org/2000/svg" xmlns:xlink="http://www.w3.org/1999/xlink" x="0px" y="0px"
	 viewBox="0 0 310.5 219" style="enable-background:new 0 0 310.5 219;" xml:space="preserve">
<style type="text/css">
	.st0{fill:#A078B4;}
	.st1{fill:#F5853A;}
	.st2{fill:#EAEAE8;}
</style>
<g id="Isolation_Mode">
	<ellipse class="st0" cx="155.5" cy="149.9" rx="22" ry="35.9"/>
	<circle class="st1" cx="155" cy="85.6" r="16.6"/>
</g>
<g>
	<path class="st2" d="M278.5,132.5c-22.8-22-39.6-27-44.9-29.8c12.5-2.7,34.5-0.6,45-13.9c5.6-7,9.2-17.5,9.2-28.4
		c0-5.3-0.9-10.4-2.7-15.1c-1.8-4.8-4.5-8.9-8-12.5c-3.5-3.6-7.6-6.3-12.2-8.3c-3.8-1.7-8-2.9-12.8-3.4c-4.7-0.6-24-0.8-30.7-0.8
		h-78.8c-6.4,0-11,1.4-13.9,4.3c-0.2,0.2-0.4,0.6-0.6,0.8c-0.1,0.1-0.2,0.1-0.2,0.2c-2.8,3-4.1,7.5-4.1,13.5v50.1
		c0,0-63.4-64.5-65.3-66C20.9-6.7,8.1,34.1,26.1,46.9L68.9,81c0,0-25.6,28.8-48.3,59.4c-28.4,38.2,11.2,38.8,15.6,38.8
		c15.7,0,21.8-13.6,23.6-16.5c1.8-2.9,3.4-5.6,4.8-8l29.9-56.1l29.1,26.2l-0.4,40.9c0.1,20.1,25.8,42.1,30.9,42.1
		c4.6,0,30.7-22,30.7-42.1l0-40.6h10.4c5.2,0,15.7-0.6,19.3,0.3c9,2.1,12.5,5,16.2,8.5c11.9,11.4,14.7,19.1,23.5,35
		C267.5,192.9,329.3,181.5,278.5,132.5z M165.1,160.5c-2,4-4.3,7.2-7.1,9.5s-15.6,6.1-15.6,6.1s18.4-11.6,14.1-23.2
		c-3.1,0-5.7-0.9-7.9-2.8c-2.2-1.9-3.3-4.5-3.3-7.9c0-2.9,1.1-5.4,3.3-7.4c2.2-2,4.8-3,7.7-3c2.2,0,4.3,0.6,6.1,1.8
		c1.8,1.2,3.2,3,4.2,5.3c1,2.3,1.5,5.2,1.5,8.7C168,152.2,167,156.5,165.1,160.5z M165.2,98c-2.8,2.8-5.8,4.2-9.2,4.2
		c-2.5,0-4.8-0.6-6.8-1.8c-2.1-1.2-3.7-2.8-4.9-4.8c-1.2-2-1.8-4.3-1.8-6.8c0-4.2,1.3-7.5,4-9.8c2.7-2.3,5.9-3.5,9.6-3.5
		c3.6,0,6.8,1.2,9.4,3.5c2.6,2.4,3.9,5.6,3.9,9.8C169.3,92.1,167.9,95.2,165.2,98z M211.3,88.4h-26.5V39.1H212
		c10.2,0,17,0.7,20.4,2.2c3.7,1.5,8.3,2.2,8.3,21.1C240.8,83.7,218.4,88.4,211.3,88.4z"/>
</g>
</svg>
